<svg width="24" height="20" viewBox="0 0 24 20" fill="none" xmlns="http://www.w3.org/2000/svg">
<path d="M4.816 7.182L4.816 8.134H4.41C3.81267 8.134 3.304 8.316 2.884 8.68C2.47333 9.044 2.268 9.52933 2.268 10.136L2.268 14L1.19 14L1.19 7.182L2.198 7.182L2.198 8.148C2.702 7.46667 3.40667 7.126 4.312 7.126C4.48933 7.126 4.65733 7.14467 4.816 7.182ZM6.17827 11.284L6.17827 7.182L7.24227 7.182L7.24227 11.354C7.24227 11.8953 7.4056 12.334 7.73227 12.67C8.06827 12.9967 8.49293 13.16 9.00627 13.16C9.51027 13.16 9.9256 12.992 10.2523 12.656C10.5789 12.32 10.7423 11.886 10.7423 11.354L10.7423 7.182L11.8203 7.182L11.8203 11.284C11.8203 12.1333 11.5496 12.824 11.0083 13.356C10.4763 13.888 9.80893 14.154 9.00627 14.154C8.19427 14.154 7.5176 13.888 6.97627 13.356C6.44427 12.824 6.17827 12.1333 6.17827 11.284Z" fill="black"/>
<path d="M16 8L19.6125 11.4569L23.2092 7.98357" stroke="black" stroke-linecap="round" stroke-linejoin="round"/>
</svg>
